<svg id="Donation" xmlns="http://www.w3.org/2000/svg" width="34.509" height="36.903" viewBox="0 0 34.509 36.903">
  <path id="Path_50680" data-name="Path 50680" d="M33.5,282.558H1.011A2.869,2.869,0,0,1,0,282.374v15.469a1.048,1.048,0,0,0,1.011,1.081H33.5a1.048,1.048,0,0,0,1.011-1.081V282.374A2.869,2.869,0,0,1,33.5,282.558Zm-4.4,11.657a1.048,1.048,0,0,1-1.011,1.081H6.425a1.048,1.048,0,0,1-1.011-1.081v-6.948a1.048,1.048,0,0,1,1.011-1.081H28.083a1.048,1.048,0,0,1,1.011,1.081v6.948Z" transform="translate(0 -262.022)" fill="#8d4600"/>
  <rect id="Rectangle_21197" data-name="Rectangle 21197" width="19.636" height="4.786" transform="translate(7.437 26.327)" fill="#8d4600"/>
  <path id="Path_50681" data-name="Path 50681" d="M1.011,107.826H33.5a1,1,0,0,0,.86-.513,1.147,1.147,0,0,0,.044-1.052L30.07,97a1.006,1.006,0,0,0-.9-.6H25.212a8.84,8.84,0,0,1-1.646,4.632h1.268a1.084,1.084,0,0,1,0,2.162H9.674a1.084,1.084,0,0,1,0-2.162h1.268A8.839,8.839,0,0,1,9.3,96.4H5.342a1.006,1.006,0,0,0-.9.6L.106,106.262a1.147,1.147,0,0,0,.044,1.052A1,1,0,0,0,1.011,107.826Z" transform="translate(0 -89.452)" fill="#d4971b"/>
  <path id="Path_50682" data-name="Path 50682" d="M170.379,11.58h6.85c4.7-3.518,2.4-11.565-3.425-11.58C167.983.015,165.683,8.063,170.379,11.58Z" transform="translate(-156.549)" fill="#8d4600"/>
</svg>
