<svg id="Jinmandir" xmlns="http://www.w3.org/2000/svg" width="30.187" height="47.842" viewBox="0 0 30.187 47.842">
  <g id="Group_62546" data-name="Group 62546">
    <path id="Path_50620" data-name="Path 50620" d="M51.692,156.635H50.17l.135-2.18h.23v-1.792a.37.37,0,1,1,.74,0v1.792h.281Z" transform="translate(-43.897 -132.908)" fill="#d4971b" fill-rule="evenodd"/>
    <path id="Path_50621" data-name="Path 50621" d="M50.657,194.413H48.79l.126-2.026h1.615Z" transform="translate(-42.69 -167.905)" fill="#d4971b" fill-rule="evenodd"/>
    <path id="Path_50622" data-name="Path 50622" d="M3.541,326.238H0v-2.1a2.09,2.09,0,0,1,2.064-2.1H5.529a4.457,4.457,0,0,0-1.988,3.654Z" transform="translate(0 -281.056)" fill="#d4971b" fill-rule="evenodd"/>
    <rect id="Rectangle_21196" data-name="Rectangle 21196" width="4.659" height="1.735" transform="translate(2.434 38.492)" fill="#d4971b"/>
    <path id="Path_50623" data-name="Path 50623" d="M38.32,329.53a3.134,3.134,0,0,1,3.1-3.113H55.847a3.135,3.135,0,0,1,3.1,3.152v3.151H38.32Z" transform="translate(-33.529 -284.878)" fill="#8d4600" fill-rule="evenodd"/>
    <path id="Path_50624" data-name="Path 50624" d="M16.139,224.7a1.664,1.664,0,0,1-.214-1.4c.515-1.551,1.45-.617,1.634-3.418a12.9,12.9,0,0,1,.74-3.849,3.376,3.376,0,0,1,1.37-1.813l2.494,0a2.9,2.9,0,0,1,.788.834q-.071.588-.121,1.215-.017.21-.03.424a10.015,10.015,0,0,1-.2,1.612,1.313,1.313,0,0,1-.335.7,4.768,4.768,0,0,0-1.967,3.421,4.144,4.144,0,0,0,.633,2.168l.028.046v.057Z" transform="translate(-13.871 -186.957)" fill="#d4971b" fill-rule="evenodd"/>
    <path id="Path_50625" data-name="Path 50625" d="M62.954,180.594a2.457,2.457,0,0,0,.76-1.382,6.747,6.747,0,0,0,.134-.76c.063-.491.086-.99.124-1.479a18.129,18.129,0,0,1,1.054-5.2,4.974,4.974,0,0,1,2.055-2.7l3.685,0a5.609,5.609,0,0,1,1.963,2.783,18.248,18.248,0,0,1,1.026,5.015c.043.5.065,1.005.125,1.505a7.16,7.16,0,0,0,.14.828,2.465,2.465,0,0,0,.76,1.382,3.469,3.469,0,0,1,1.507,2.45,2.881,2.881,0,0,1-.454,1.5H61.9a2.878,2.878,0,0,1-.453-1.5,3.461,3.461,0,0,1,1.505-2.448" transform="translate(-53.766 -147.561)" fill="#8d4600" fill-rule="evenodd"/>
    <path id="Path_50626" data-name="Path 50626" d="M114.506,14.884h-2.2l.106-1.7h.5V.464a.456.456,0,1,1,.913,0V13.18h.574Z" transform="translate(-98.268)" fill="#8d4600" fill-rule="evenodd"/>
    <path id="Path_50627" data-name="Path 50627" d="M113.426,126.224H110.87l.123-1.967H113.3Z" transform="translate(-97.008 -108.445)" fill="#8d4600" fill-rule="evenodd"/>
    <path id="Path_50628" data-name="Path 50628" d="M80.248,300.58H66.73v-2.7H80.248Z" transform="translate(-58.387 -259.97)" fill="#8d4600" fill-rule="evenodd"/>
    <path id="Path_50629" data-name="Path 50629" d="M180.007,194.413H178.14l.125-2.026h1.615Z" transform="translate(-155.867 -167.905)" fill="#d4971b" fill-rule="evenodd"/>
    <path id="Path_50630" data-name="Path 50630" d="M112.384,148.9h-2.9l.116-1.881h2.671Z" transform="translate(-95.792 -128.308)" fill="#8d4600" fill-rule="evenodd"/>
    <path id="Path_50631" data-name="Path 50631" d="M181.042,156.635H179.52l.135-2.18h.229v-1.792a.371.371,0,1,1,.741,0v1.792h.281Z" transform="translate(-157.075 -132.908)" fill="#d4971b" fill-rule="evenodd"/>
    <path id="Path_50632" data-name="Path 50632" d="M200.861,322.037a2.089,2.089,0,0,1,2.063,2.1v2.1H199.4v-.491a4.445,4.445,0,0,0-1.98-3.71Z" transform="translate(-172.737 -281.056)" fill="#d4971b" fill-rule="evenodd"/>
    <path id="Path_50633" data-name="Path 50633" d="M169.026,216.165q-.049-.582-.116-1.131a2.576,2.576,0,0,1,.851-.817l2.494,0a3.807,3.807,0,0,1,1.307,1.869,12.976,12.976,0,0,1,.729,3.791c.184,2.8,1.117,1.864,1.633,3.418a1.659,1.659,0,0,1-.213,1.4c-.291,0-3.078.01-4.809,0v-.061l.028-.047a4.164,4.164,0,0,0,.633-2.165A4.76,4.76,0,0,0,169.6,219a1.323,1.323,0,0,1-.334-.7,10.1,10.1,0,0,1-.193-1.587c-.014-.186-.026-.372-.043-.555" transform="translate(-147.791 -186.957)" fill="#d4971b" fill-rule="evenodd"/>
    <path id="Path_50634" data-name="Path 50634" d="M189.491,304.212l-4.641-.023v-1.712h4.641Z" transform="translate(-161.738 -263.985)" fill="#d4971b" fill-rule="evenodd"/>
    <path id="Path_50635" data-name="Path 50635" d="M127.336,11.606l7.565,4.052-7.565,3.525Z" transform="translate(-112.196 -11.017)" fill="#8e0b0b" fill-rule="evenodd"/>
    <path id="Path_50636" data-name="Path 50636" d="M118.9,8.76a.309.309,0,0,1-.169-.05.32.32,0,0,1-.144-.268V.325a.319.319,0,0,1,.151-.272.308.308,0,0,1,.307-.009l8.1,4.341a.321.321,0,0,1-.016.571l-8.1,3.776a.308.308,0,0,1-.13.029m.313-7.908V7.946l7.083-3.3Z" transform="translate(-103.763 -0.006)" fill="#8e0b0b"/>
  </g>
</svg>
