<svg id="Near_By_Places" data-name="Near By Places" xmlns="http://www.w3.org/2000/svg" width="34.233" height="48.811" viewBox="0 0 34.233 48.811">
  <path id="location-pin_2_" data-name="location-pin (2)" d="M20.117,0C10.68,0,3,8.269,3,18.436,3,32.882,18.508,47.8,19.168,48.425a1.361,1.361,0,0,0,1.9,0c.66-.628,16.168-15.544,16.168-29.99C37.233,8.269,29.554,0,20.117,0Zm0,30.612c-6.326,0-11.509-4.653-11.509-12.308S13.676,6,20.117,6,31.626,11.885,31.626,18.3,26.443,30.612,20.117,30.612Z" transform="translate(-3)" fill="#8d4600"/>
  <path id="Path_50738" data-name="Path 50738" d="M159.874,104.77a3.113,3.113,0,0,1-.649,2.013,2.111,2.111,0,0,1-1.718.831h-.094a.59.59,0,0,1-.555-.608V106.9a.633.633,0,0,1,.171-.432.553.553,0,0,1,.407-.176h.007a1.041,1.041,0,0,0,.891-.473,1.865,1.865,0,0,0,.306-1.1,1.97,1.97,0,0,0-.249-1.013.9.9,0,0,0-.806-.5q-.592,0-.947,1.144a8.232,8.232,0,0,1-.877,2.112,3.038,3.038,0,0,1-2.624,1.144h0a.233.233,0,0,0-.173.078.267.267,0,0,0-.068.187v.116a2.769,2.769,0,0,1-1,2.219,3.333,3.333,0,0,1-2.225.778,4.443,4.443,0,0,1-3.524-1.752.717.717,0,0,1-.159-.534.7.7,0,0,1,.267-.482.614.614,0,0,1,.844.1,4.142,4.142,0,0,0,.915.79,3.051,3.051,0,0,0,1.654.511,2.147,2.147,0,0,0,1.3-.389,1.536,1.536,0,0,0,.648-1.327,1.821,1.821,0,0,0-.542-1.4,1.735,1.735,0,0,0-1.212-.442c-.076,0-.15,0-.222.009a.617.617,0,0,1-.489-.177.71.71,0,0,1-.209-.5v0a.668.668,0,0,1,.586-.682c.093-.009.193-.013.3-.013a2.816,2.816,0,0,1,.4.03.535.535,0,0,0,.525-.248,1.724,1.724,0,0,0,.237-.949,1.526,1.526,0,0,0-.456-1.154,1.565,1.565,0,0,0-1.119-.427,2.17,2.17,0,0,0-1.575.581.611.611,0,0,1-.767.068h0a.7.7,0,0,1-.307-.516.722.722,0,0,1,.194-.575,3.287,3.287,0,0,1,2.465-.923,2.932,2.932,0,0,1,2.9,2.936,2.687,2.687,0,0,1-.253,1.205,1.141,1.141,0,0,0,.114,1.2l.008.009a1,1,0,0,0,.631.379,3.371,3.371,0,0,0,.449.05,1.632,1.632,0,0,0,1.449-.87,2.8,2.8,0,0,0,.218-.45q.352-.916.71-1.832a2.44,2.44,0,0,1,.386-.667,1.919,1.919,0,0,1,1.555-.713,1.992,1.992,0,0,1,1.739.839A3.59,3.59,0,0,1,159.874,104.77ZM157.3,98.647a.573.573,0,0,1,.513.336.652.652,0,0,1-.046.641,3.554,3.554,0,0,1-.994.983,4.175,4.175,0,0,1-4.563,0,3.553,3.553,0,0,1-.994-.983.652.652,0,0,1-.046-.641.573.573,0,0,1,.513-.336h.005a.561.561,0,0,1,.487.287,2.114,2.114,0,0,0,.87.826,3.016,3.016,0,0,0,1.447.343,2.976,2.976,0,0,0,1.44-.343,2.118,2.118,0,0,0,.87-.826.561.561,0,0,1,.486-.287Zm-2.063-.659-.492.53a.343.343,0,0,1-.509,0l-.5-.53a.4.4,0,0,1,0-.544l.5-.527a.343.343,0,0,1,.505,0l.492.526a.4.4,0,0,1,0,.545Z" transform="translate(-134.977 -85.538)" fill="#d4971b"/>
</svg>
