<svg xmlns="http://www.w3.org/2000/svg" width="35.857" height="46.604" viewBox="0 0 35.857 46.604">
  <g id="Pujya_Gurudev" data-name="Pujya Gurudev" transform="translate(0.5 0.5)">
    <g id="Group_62585" data-name="Group 62585" transform="translate(0)">
      <path id="Path_50696" data-name="Path 50696" d="M34.857,18.639a19.1,19.1,0,0,1-6.675,14.668,16.547,16.547,0,0,1-21.508,0A19.1,19.1,0,0,1,0,18.639C0,8.345,7.8,0,17.428,0S34.857,8.345,34.857,18.639" transform="translate(0)" fill="none" stroke="#d4971b" stroke-width="1"/>
      <path id="Path_50739" data-name="Path 50739" d="M26.922,14.394a14.745,14.745,0,0,1-5.155,11.327,12.782,12.782,0,0,1-16.612,0A14.745,14.745,0,0,1,0,14.394C0,6.445,6.027,0,13.461,0S26.922,6.445,26.922,14.394" transform="translate(3.968 4.038)" fill="#d4971b"/>
      <path id="Path_50697" data-name="Path 50697" d="M184.073,101.61c-.15-.114-.309-.215-.467-.317a1.606,1.606,0,0,1-.722-1.453l.6-9.033c.157-2.452-.275-2.811-4.928-14.32a1.74,1.74,0,0,0-2.275-.991,1.781,1.781,0,0,0-1.1,1.662c0,.08,1.114,10.926,1.193,11.006a3.16,3.16,0,0,1,3.3,3.023q0,.082,0,.164v4.759a.815.815,0,0,1-.761.832.791.791,0,0,1-.809-.8V91.35a1.583,1.583,0,0,0-1.576-1.591,1.555,1.555,0,0,0-1.1.465c-.643.631-.463.3-.463,11.661a4.837,4.837,0,0,0,1.314,3.321c.324.343.643.692.936,1.062l6.181,7.8,8.632-6.389Z" transform="translate(-156.753 -67.967)" fill="#8d4600"/>
      <path id="Path_50698" data-name="Path 50698" d="M9.055,107.681l8.632,6.389,6.181-7.8c.294-.371.612-.719.936-1.062a4.838,4.838,0,0,0,1.314-3.321c0-11.357.18-11.03-.463-11.661a1.556,1.556,0,0,0-1.1-.464,1.583,1.583,0,0,0-1.576,1.591v4.792a.791.791,0,0,1-.809.8.815.815,0,0,1-.761-.832V91.349q0-.082,0-.164a3.16,3.16,0,0,1,3.3-3.023c.079-.08,1.193-10.926,1.193-11.006a1.781,1.781,0,0,0-1.1-1.662,1.74,1.74,0,0,0-2.275.991c-4.653,11.509-5.085,11.868-4.928,14.32l.6,9.033a1.606,1.606,0,0,1-.722,1.453c-.158.1-.317.2-.467.317Z" transform="translate(-9.055 -67.966)" fill="#8d4600"/>
    </g>
  </g>
</svg>
