<svg id="Request_To_Stay" data-name="Request To Stay" xmlns="http://www.w3.org/2000/svg" width="38.728" height="41.415" viewBox="0 0 38.728 41.415">
  <path id="Path_50647" data-name="Path 50647" d="M294.269,3.156a.706.706,0,0,1,.681-.728h3.933a.706.706,0,0,1,.681.728V7.493h2.269V3.156A3.061,3.061,0,0,0,298.883,0H294.95A3.061,3.061,0,0,0,292,3.156V7.493h2.269Z" transform="translate(-269.913 -0.001)" fill="#8d4600"/>
  <path id="Path_50648" data-name="Path 50648" d="M13.792,243.139a5.49,5.49,0,0,1-.782-2.831V222.117H2.647A2.747,2.747,0,0,0,0,224.948v15.36a2.781,2.781,0,0,0,2.269,2.8v1.242A1.176,1.176,0,0,0,3.4,245.565a1.176,1.176,0,0,0,1.135-1.213v-1.213h9.254ZM4.538,226.566a1.176,1.176,0,0,1,1.135-1.213,1.176,1.176,0,0,1,1.135,1.213V238.69A1.176,1.176,0,0,1,5.673,239.9a1.176,1.176,0,0,1-1.135-1.213Z" transform="translate(0 -204.15)" fill="#d4971b"/>
  <path id="Path_50649" data-name="Path 50649" d="M112.269,132.656a.706.706,0,0,1,.681-.728h1.74v-.152a5.527,5.527,0,0,1,.484-2.274H112.95a3.061,3.061,0,0,0-2.95,3.155v1.91h2.269Z" transform="translate(-101.679 -119.026)" fill="#d4971b"/>
  <path id="Path_50650" data-name="Path 50650" d="M222.8,122.617H204.647A2.747,2.747,0,0,0,202,125.448v23.408a2.781,2.781,0,0,0,2.269,2.8V152.9a1.137,1.137,0,1,0,2.269,0v-1.213H220.91V152.9a1.137,1.137,0,1,0,2.269,0v-1.242a2.781,2.781,0,0,0,2.269-2.8V125.448A2.747,2.747,0,0,0,222.8,122.617Zm-13.994,24.621a1.137,1.137,0,1,1-2.269,0V127.066a1.137,1.137,0,1,1,2.269,0Zm10.968,1.213a1.176,1.176,0,0,1-1.135-1.213V127.066a1.137,1.137,0,1,1,2.269,0v20.172A1.176,1.176,0,0,1,219.776,148.452Z" transform="translate(-186.72 -112.699)" fill="#8d4600"/>
</svg>
