<svg id="Suvarnapuri_Guide_Map" data-name="Suvarnapuri Guide Map" xmlns="http://www.w3.org/2000/svg" width="35.687" height="40.636" viewBox="0 0 35.687 40.636">
  <path id="Path_50651" data-name="Path 50651" d="M238.6,355.749V345.612l-4.2,5.645Z" transform="translate(-218.156 -318.182)" fill="#8d4600"/>
  <path id="Path_50652" data-name="Path 50652" d="M191,20.986V27.68h5.943Z" transform="translate(-177.981 -19.32)" fill="#d4971b"/>
  <path id="Path_50653" data-name="Path 50653" d="M36.021,148.192V135.326H16.7a1.157,1.157,0,0,0-1.117,1.194v11.672L25.8,161.925ZM19.91,144.926a8.053,8.053,0,0,1,1.722-5.392,5.751,5.751,0,0,1,8.493,0,8.053,8.053,0,0,1,1.722,5.392c0,4.587-5.008,9.491-5.221,9.7a1.06,1.06,0,0,1-1.495,0C24.918,154.417,19.91,149.513,19.91,144.926Z" transform="translate(-15.58 -124.585)" fill="#8d4600"/>
  <path id="Path_50654" data-name="Path 50654" d="M19.341,446.041h9.55l-4.232-5.686Z" transform="translate(-19.062 -405.405)" fill="#8d4600"/>
  <path id="Path_50655" data-name="Path 50655" d="M172.461,444.656l1.031,1.385h7.488l-5.317-5.686Z" transform="translate(-160.818 -405.405)" fill="#8d4600"/>
  <path id="Path_50656" data-name="Path 50656" d="M111.406,199.63c0-3.1-1.364-4.884-3.742-4.884s-3.742,1.78-3.742,4.884c0,2.452,2.27,5.506,3.742,7.149C109.136,205.136,111.406,202.082,111.406,199.63Zm-5.642-.5a1.9,1.9,0,1,1,1.9,2.032A1.972,1.972,0,0,1,105.764,199.129Z" transform="translate(-97.365 -179.289)" fill="#8d4600"/>
  <path id="Path_50657" data-name="Path 50657" d="M396,99.233h1.887v2.509H396Z" transform="translate(-367.766 -91.357)" fill="#d4971b"/>
  <path id="Path_50658" data-name="Path 50658" d="M232.406,0H212.443l7.751,8.73a1.236,1.236,0,0,1,.306.82V32.277h11.906a1.154,1.154,0,0,0,1.113-1.191V1.191A1.154,1.154,0,0,0,232.406,0Zm-3.34,26.695h-4.113a1.193,1.193,0,0,1,0-2.381h4.113a1.193,1.193,0,0,1,0,2.381Zm0-4.762h-4.113a1.193,1.193,0,0,1,0-2.381h4.113a1.193,1.193,0,0,1,0,2.381Zm0-4.762h-4.113a1.193,1.193,0,0,1,0-2.381h4.113a1.193,1.193,0,0,1,0,2.381Zm1.113-5.6a1.154,1.154,0,0,1-1.113,1.191h-4.113a1.154,1.154,0,0,1-1.113-1.191V6.685a1.154,1.154,0,0,1,1.113-1.191h4.113a1.154,1.154,0,0,1,1.113,1.191Z" transform="translate(-197.832)" fill="#d4971b"/>
  <path id="Path_50659" data-name="Path 50659" d="M15.58,345.613V355.75l4.2-4.493Z" transform="translate(-15.58 -318.182)" fill="#8d4600"/>
</svg>
