<svg id="Travel_Guide" data-name="Travel Guide" xmlns="http://www.w3.org/2000/svg" width="28.208" height="40.922" viewBox="0 0 28.208 40.922">
  <path id="Path_50683" data-name="Path 50683" d="M38.885,4H16.068A4.889,4.889,0,0,0,11.36,9.035V41.319a3.494,3.494,0,0,0,3.369,3.6H38.885a.71.71,0,0,0,.683-.731V4.731A.71.71,0,0,0,38.885,4ZM16.8,18.308A9.326,9.326,0,0,1,25.027,9.7a8.8,8.8,0,0,1,8.911,7.235,9.443,9.443,0,0,1-5.16,10.617.276.276,0,0,0-.157.175L27.077,32.5c-.217.766-.765,2.626-1.514,2.619s-1.519-1.878-1.725-2.649l-1.517-4.677a.315.315,0,0,0-.171-.234A9.386,9.386,0,0,1,16.8,18.308ZM38.2,43.461H14.729a2.142,2.142,0,0,1,0-4.275H38.2Z" transform="translate(-11.36 -4)" fill="#8d4600"/>
  <path id="Path_50684" data-name="Path 50684" d="M25.815,28.848a1.683,1.683,0,0,1,.964,1.169l1.5,4.648c.011.169.17,1.189.328,1.2s.269-.98.308-1.145l1.544-4.772A1.663,1.663,0,0,1,31.4,28.84c4.826-1.989,6.081-9.186,2.248-12.9-4.4-4.608-11.789-1.239-12.341,5.108a7.911,7.911,0,0,0,4.5,7.8Zm7.578-7.234a4.958,4.958,0,0,1-4.783,5.115,4.958,4.958,0,0,1-4.783-5.115C24.051,14.843,33.17,14.845,33.393,21.613Z" transform="translate(-14.506 -6.64)" fill="#d4971b"/>
  <path id="Path_50685" data-name="Path 50685" d="M33.833,23.156a3.423,3.423,0,1,0-6.833,0A3.423,3.423,0,1,0,33.833,23.156Z" transform="translate(-16.313 -8.183)" fill="#8d4600"/>
</svg>
