<svg xmlns="http://www.w3.org/2000/svg" width="36.106" height="34.857" viewBox="0 0 36.106 34.857">
  <g id="Group_62612" data-name="Group 62612" transform="translate(-41.605 -49.019)">
    <path id="Path_50645" data-name="Path 50645" d="M92.457,154.84v16.2h8.573v-9.119a.862.862,0,0,1,.862-.862h8.826a.862.862,0,0,1,.862.862v9.119h8.082V154.571L106.251,144.2Z" transform="translate(-46.57 -87.164)" fill="#8c4400"/>
    <path id="Path_50646" data-name="Path 50646" d="M214.746,364.931h7.1v8.256h-7.1Z" transform="translate(-158.562 -289.311)" fill="#d59d1e"/>
    <path id="Path_50647" data-name="Path 50647" d="M77.007,63.668l-5.5-4.256a.863.863,0,0,1-.335-.682V49.019H67.3v5.387a.862.862,0,0,1-1.39.682l-6.232-4.821-17.37,13.4a1.825,1.825,0,0,0-.706,1.436,1.814,1.814,0,0,0,2.922,1.442L59.155,55.261a.862.862,0,0,1,1.054,0L74.787,66.538A1.814,1.814,0,0,0,77.711,65.1a1.825,1.825,0,0,0-.7-1.435Z" fill="#d59d1e"/>
  </g>
</svg>
