<svg id="Back_arrow" data-name="Back arrow" xmlns="http://www.w3.org/2000/svg" width="46" height="48.875" viewBox="0 0 46 48.875">
  <path id="Path_1467" data-name="Path 1467" d="M0,0H46V48.875H0Z" transform="translate(0 0)" fill="none"/>
  <path id="Icon_ionic-ios-arrow-round-forward" data-name="Icon ionic-ios-arrow-round-forward" d="M19.3,11.48a.813.813,0,0,0-.006,1.145l3.783,3.789H8.678a.809.809,0,0,0,0,1.618h14.39L19.285,21.82a.819.819,0,0,0,.006,1.145.805.805,0,0,0,1.139-.006L25.556,17.8h0a.908.908,0,0,0,.168-.255.772.772,0,0,0,.062-.311.811.811,0,0,0-.23-.566L20.43,11.5A.793.793,0,0,0,19.3,11.48Z" transform="translate(40.41 40.691) rotate(-180)" fill="#8d4600"/>
</svg>
