<svg xmlns="http://www.w3.org/2000/svg" width="333.476" height="37.581" viewBox="0 0 333.476 37.581">
  <g id="Group_62529" data-name="Group 62529" transform="translate(0)">
    <g id="Group_57755" data-name="Group 57755" transform="translate(0 0)">
      <path id="Path_49486" data-name="Path 49486" d="M812.133,710.2a.6.6,0,0,1-.839.056,51.6,51.6,0,0,0-9.724-6.132c-13.242-6.732-56.957-13.541-96.932-3.147a141.3,141.3,0,0,1-17.284,3.443c-14.47,1.857-25.575.279-33.01-4.693h0A20.992,20.992,0,0,1,644.98,685a4.2,4.2,0,0,1,.628-2.772,3.95,3.95,0,0,1,6.715,0,4.172,4.172,0,0,1,.632,2.529c-.2,2.6-.624,11.255,2.1,14.013,7.188,4.78,18,6.284,32.144,4.469a140.148,140.148,0,0,0,17.137-3.415,178.939,178.939,0,0,1,44.556-5.371c24.166,0,44.784,4.324,53.213,8.61a51.606,51.606,0,0,1,9.97,6.3A.594.594,0,0,1,812.133,710.2Z" transform="translate(-644.948 -680.355)" fill="#f6c024"/>
      <path id="Path_49487" data-name="Path 49487" d="M831.5,703.788a.6.6,0,0,1-.839.056,40.065,40.065,0,0,0-7.538-4.752c-10.285-5.229-44.248-10.516-75.311-2.438a110.1,110.1,0,0,1-13.462,2.681c-11.289,1.45-19.958.214-25.769-3.672h0a16.461,16.461,0,0,1-7.339-11.547,3.4,3.4,0,0,1,.508-2.243,3.205,3.205,0,0,1,5.448,0,3.383,3.383,0,0,1,.511,2.049c-.152,2-.482,8.675,1.59,10.789,5.564,3.694,13.94,4.855,24.9,3.447a108.97,108.97,0,0,0,13.315-2.653,139.3,139.3,0,0,1,34.686-4.181c18.826,0,34.895,3.371,41.463,6.711a40.3,40.3,0,0,1,7.783,4.918A.594.594,0,0,1,831.5,703.788Z" transform="translate(-664.316 -673.948)" fill="#f6c024"/>
    </g>
    <path id="Path_49488" data-name="Path 49488" d="M900.209,675.975a2.719,2.719,0,0,1-2.374,1.611.657.657,0,0,1-.1,0,2.721,2.721,0,0,1-2.377-1.613c-.755-1.7-.025-4.272,1.954-6.878a.595.595,0,0,1,.948,0C900.236,671.7,900.965,674.274,900.209,675.975Z" transform="translate(-731.045 -640.007)" fill="#f6c024"/>
    <g id="Group_57756" data-name="Group 57756" transform="translate(166.143 0)">
      <path id="Path_49489" data-name="Path 49489" d="M1065.6,685a20.99,20.99,0,0,1-9.36,14.725h0c-7.434,4.972-18.54,6.552-33.009,4.693a141.318,141.318,0,0,1-17.286-3.443c-39.972-10.4-83.688-3.585-96.931,3.148a51.6,51.6,0,0,0-9.724,6.131.595.595,0,0,1-.784-.894,51.606,51.606,0,0,1,9.97-6.3c8.429-4.286,29.045-8.61,53.213-8.61a179,179,0,0,1,44.556,5.371,140.169,140.169,0,0,0,17.137,3.415c14.143,1.815,24.956.311,32.144-4.469,2.727-2.758,2.3-11.415,2.1-14.013a4.17,4.17,0,0,1,.632-2.529,3.961,3.961,0,0,1,3.357-1.869h0a3.977,3.977,0,0,1,3.375,1.9A4.174,4.174,0,0,1,1065.6,685Z" transform="translate(-898.303 -680.355)" fill="#f6c024"/>
      <path id="Path_49490" data-name="Path 49490" d="M1028.712,684.115a16.462,16.462,0,0,1-7.339,11.547h0c-5.811,3.886-14.48,5.12-25.769,3.672a110.184,110.184,0,0,1-13.463-2.681c-31.063-8.078-65.025-2.791-75.311,2.439a40.027,40.027,0,0,0-7.537,4.751.595.595,0,0,1-.784-.894,40.328,40.328,0,0,1,7.783-4.918c6.57-3.34,22.633-6.711,41.463-6.711a139.385,139.385,0,0,1,34.686,4.181,108.75,108.75,0,0,0,13.315,2.653c10.961,1.408,19.337.247,24.9-3.447,2.074-2.114,1.742-8.785,1.59-10.789a3.383,3.383,0,0,1,.511-2.048,3.2,3.2,0,0,1,5.461.022A3.377,3.377,0,0,1,1028.712,684.115Z" transform="translate(-898.303 -673.948)" fill="#f6c024"/>
    </g>
  </g>
</svg>
