<svg xmlns="http://www.w3.org/2000/svg" width="16.396" height="14.346" viewBox="0 0 16.396 14.346">
  <path id="Camera" d="M16.4,5.837v9.223A1.537,1.537,0,0,1,14.859,16.6H1.537A1.537,1.537,0,0,1,0,15.059V5.837A1.537,1.537,0,0,1,1.537,4.3H4.355l.394-1.054a1.535,1.535,0,0,1,1.438-1h4.019a1.535,1.535,0,0,1,1.438,1l.4,1.054h2.818A1.537,1.537,0,0,1,16.4,5.837Zm-4.355,4.611A3.843,3.843,0,1,0,8.2,14.291,3.846,3.846,0,0,0,12.041,10.448Zm-1.025,0A2.818,2.818,0,1,1,8.2,7.63,2.822,2.822,0,0,1,11.016,10.448Z" transform="translate(0 -2.25)" fill="#9e4f01"/>
</svg>
