<svg xmlns="http://www.w3.org/2000/svg" width="334.197" height="11.107" viewBox="0 0 334.197 11.107">
  <g id="Group_62530" data-name="Group 62530" transform="translate(-20 -100.5)">
    <g id="Group_57744" data-name="Group 57744" transform="translate(-26.528 -529.737)">
      <g id="Group_57740" data-name="Group 57740" transform="translate(51.192 630.237)">
        <g id="Group_57737" data-name="Group 57737" transform="translate(0 5.004)">
          <rect id="Rectangle_19223" data-name="Rectangle 19223" width="325.671" height="1.099" fill="#f6c024"/>
        </g>
        <g id="Group_57738" data-name="Group 57738" transform="translate(149.395)">
          <path id="Path_49462" data-name="Path 49462" d="M297.069,633.43l-2.086-3.193L292.9,633.43a1.734,1.734,0,0,0,.2,2.147l1.884,1.937,1.883-1.937A1.734,1.734,0,0,0,297.069,633.43Z" transform="translate(-281.542 -630.237)" fill="#f6c024"/>
          <path id="Path_49463" data-name="Path 49463" d="M292.9,646.327l2.086,3.193,2.086-3.193a1.733,1.733,0,0,0-.2-2.146l-1.883-1.938-1.884,1.938A1.733,1.733,0,0,0,292.9,646.327Z" transform="translate(-281.542 -638.412)" fill="#f6c024"/>
          <path id="Path_49464" data-name="Path 49464" d="M280.263,635.85l-2.977,1.777-1.546-.926a1.068,1.068,0,0,0-1.163.063c-.569.45-.024,1.089.929,1.089-.952,0-1.5.64-.929,1.089h0a1.067,1.067,0,0,0,1.163.063l1.546-.926,2.977,1.776a3.32,3.32,0,0,0,2.835.116l4.688-2.119-4.688-2.119A3.321,3.321,0,0,0,280.263,635.85Z" transform="translate(-274.345 -632.299)" fill="#f6c024"/>
          <path id="Path_49465" data-name="Path 49465" d="M308.809,637.853c1.02,0,1.535-.724.82-1.152a1.069,1.069,0,0,0-1.164.063l-1.243.983-3.179-1.9a3.321,3.321,0,0,0-2.835-.116l-4.687,2.119,4.687,2.119a3.32,3.32,0,0,0,2.835-.116l3.179-1.9,1.243.983a1.068,1.068,0,0,0,1.164.063C310.344,638.577,309.829,637.853,308.809,637.853Z" transform="translate(-283.08 -632.299)" fill="#f6c024"/>
        </g>
        <g id="Group_57739" data-name="Group 57739" transform="translate(119.103 1.983)">
          <path id="Path_49466" data-name="Path 49466" d="M360.138,637.919l-1.024-1.567-1.024,1.567a.851.851,0,0,0,.1,1.053l.924.95.924-.95A.851.851,0,0,0,360.138,637.919Z" transform="translate(-276.987 -636.352)" fill="#f6c024"/>
          <path id="Path_49467" data-name="Path 49467" d="M358.09,644.247l1.024,1.567,1.024-1.567a.85.85,0,0,0-.1-1.053l-.924-.951-.924.951A.85.85,0,0,0,358.09,644.247Z" transform="translate(-276.987 -638.672)" fill="#f6c024"/>
          <path id="Path_49468" data-name="Path 49468" d="M363.56,639.24a1.039,1.039,0,0,0-1.391-.1l-2.3,1.792,2.3,1.792a1.039,1.039,0,0,0,1.391-.1l1.647-1.694Z" transform="translate(-277.742 -637.364)" fill="#f6c024"/>
          <path id="Path_49469" data-name="Path 49469" d="M352.709,639.24l-1.647,1.694,1.647,1.694a1.039,1.039,0,0,0,1.391.1l2.3-1.792-2.3-1.792A1.039,1.039,0,0,0,352.709,639.24Z" transform="translate(-274.273 -637.364)" fill="#f6c024"/>
          <path id="Path_49470" data-name="Path 49470" d="M233.442,637.919l-1.024-1.567-1.024,1.567a.85.85,0,0,0,.1,1.053l.924.95.924-.95A.851.851,0,0,0,233.442,637.919Z" transform="translate(-227.08 -636.352)" fill="#f6c024"/>
          <path id="Path_49471" data-name="Path 49471" d="M231.394,644.247l1.024,1.567,1.024-1.567a.85.85,0,0,0-.1-1.053l-.924-.951-.924.951A.849.849,0,0,0,231.394,644.247Z" transform="translate(-227.08 -638.672)" fill="#f6c024"/>
          <path id="Path_49472" data-name="Path 49472" d="M235.473,639.142l-2.3,1.792,2.3,1.792a1.039,1.039,0,0,0,1.39-.1l1.647-1.694-1.647-1.694A1.039,1.039,0,0,0,235.473,639.142Z" transform="translate(-227.835 -637.364)" fill="#f6c024"/>
          <path id="Path_49473" data-name="Path 49473" d="M226.012,639.24l-1.647,1.694,1.647,1.694a1.039,1.039,0,0,0,1.39.1l2.3-1.792-2.3-1.792A1.039,1.039,0,0,0,226.012,639.24Z" transform="translate(-224.365 -637.364)" fill="#f6c024"/>
        </g>
      </g>
      <g id="Group_57741" data-name="Group 57741" transform="translate(374.573 631.072)">
        <path id="Path_49474" data-name="Path 49474" d="M544.881,639.456l2.949-4.02a1.547,1.547,0,0,1,2.49-.233h0a2.5,2.5,0,0,1-1.756,4.252Z" transform="translate(-544.881 -634.678)" fill="#f6c024"/>
        <path id="Path_49475" data-name="Path 49475" d="M544.881,642.561l2.949,4.02a1.547,1.547,0,0,0,2.49.233h0a2.5,2.5,0,0,0-1.756-4.252Z" transform="translate(-544.881 -637.783)" fill="#f6c024"/>
      </g>
      <g id="Group_57742" data-name="Group 57742" transform="translate(46.527 631.072)">
        <path id="Path_49476" data-name="Path 49476" d="M52.678,639.456l-2.949-4.02a1.547,1.547,0,0,0-2.49-.233h0A2.5,2.5,0,0,0,49,639.456Z" transform="translate(-46.527 -634.678)" fill="#f6c024"/>
        <path id="Path_49477" data-name="Path 49477" d="M52.678,642.561l-2.949,4.02a1.547,1.547,0,0,1-2.49.233h0A2.5,2.5,0,0,1,49,642.561Z" transform="translate(-46.527 -637.783)" fill="#f6c024"/>
      </g>
    </g>
  </g>
</svg>
