<svg xmlns="http://www.w3.org/2000/svg" width="18.923" height="18.923" viewBox="0 0 18.923 18.923">
  <g id="elevator" transform="translate(0 0.001)">
    <path id="Path_50760" data-name="Path 50760" d="M199.646,48.266a.649.649,0,0,0-.648.648v.846a.649.649,0,0,0,.648.648h2.917a.649.649,0,0,0,.648-.648v-.846a.649.649,0,0,0-.648-.648Zm3.01.648v.846a.093.093,0,0,1-.093.093h-2.917a.093.093,0,0,1-.093-.093v-.846a.093.093,0,0,1,.093-.093h2.917A.093.093,0,0,1,202.656,48.914Z" transform="translate(-191.643 -46.483)" fill="#fff"/>
    <path id="Path_50761" data-name="Path 50761" d="M17.534,0H14.771a.278.278,0,0,0,0,.555h2.763a.834.834,0,0,1,.833.833V18.274a.093.093,0,0,1-.093.093H14.92a.093.093,0,0,1-.093-.093V5.641a.649.649,0,0,0-.648-.648H7.145a.278.278,0,1,0,0,.555H9.184V17.512H4.651V5.641a.093.093,0,0,1,.093-.093h1.29a.278.278,0,1,0,0-.555H4.744a.649.649,0,0,0-.648.648V18.274A.093.093,0,0,1,4,18.366H.648a.093.093,0,0,1-.093-.093V1.388A.834.834,0,0,1,1.389.554H13.66a.278.278,0,1,0,0-.555H1.389A1.39,1.39,0,0,0,0,1.388V18.274a.649.649,0,0,0,.648.648H4a.649.649,0,0,0,.648-.648v-.206h6.8a.278.278,0,0,0,0-.555H9.739V5.548h4.44a.093.093,0,0,1,.093.093V17.512H12.561a.278.278,0,0,0,0,.555h1.711v.206a.649.649,0,0,0,.648.648h3.355a.649.649,0,0,0,.648-.648V1.388A1.39,1.39,0,0,0,17.534,0Z" transform="translate(0 0)" fill="#fff"/>
    <path id="Path_50762" data-name="Path 50762" d="M427.666,244.158a.277.277,0,0,0,.2-.088l.363-.39.363.39a.278.278,0,0,0,.407-.378l-.566-.608a.278.278,0,0,0-.407,0l-.566.608a.278.278,0,0,0,.2.467Z" transform="translate(-411.592 -234.014)" fill="#fff"/>
    <path id="Path_50763" data-name="Path 50763" d="M427.463,307.461l.566.608a.278.278,0,0,0,.407,0l.566-.608a.278.278,0,0,0-.407-.378l-.363.39-.363-.39a.278.278,0,1,0-.407.378Z" transform="translate(-411.593 -295.649)" fill="#fff"/>
  </g>
</svg>
