<svg xmlns="http://www.w3.org/2000/svg" width="18.983" height="18.983" viewBox="0 0 18.983 18.983">
  <g id="Group_57718" data-name="Group 57718" transform="translate(0.625 0.625)">
    <path id="Path_45790" data-name="Path 45790" d="M14.3,26.466h0a8.863,8.863,0,1,0-3.046-3.057.7.7,0,0,1,.082.563l-.978,3.195a.147.147,0,0,0,.184.184l3.195-.978A.7.7,0,0,1,14.3,26.466Z" transform="translate(-10 -10)" fill="none" stroke="#848484" stroke-linecap="round" stroke-linejoin="round" stroke-width="1.25"/>
    <g id="Group_57720" data-name="Group 57720" transform="translate(7.338 5.086)">
      <path id="Path_45791" data-name="Path 45791" d="M21.529,99.259V95.223A1.223,1.223,0,0,0,20.306,94H20" transform="translate(-20 -91.727)" fill="none" stroke="#848484" stroke-linecap="round" stroke-linejoin="round" stroke-width="1.5"/>
      <path id="Path_45792" data-name="Path 45792" d="M20,267h3.058" transform="translate(-20 -259.438)" fill="none" stroke="#848484" stroke-linecap="round" stroke-linejoin="round" stroke-width="1.5"/>
      <line id="Line_697" data-name="Line 697" transform="translate(1.773)" fill="none" stroke="#848484" stroke-linecap="round" stroke-linejoin="round" stroke-width="1.5"/>
    </g>
  </g>
</svg>
