<svg id="Component_6_39" data-name="Component 6 – 39" xmlns="http://www.w3.org/2000/svg" width="18" height="12" viewBox="0 0 18 12">
  <path id="Path_38458" data-name="Path 38458" d="M1.059,0H16.941A1.031,1.031,0,0,1,18,1a1.031,1.031,0,0,1-1.059,1H1.059A1.031,1.031,0,0,1,0,1,1.031,1.031,0,0,1,1.059,0Z" transform="translate(0 0)" fill="#ffce41"/>
  <path id="Path_38459" data-name="Path 38459" d="M1,0H13a1,1,0,0,1,0,2H1A1,1,0,0,1,1,0Z" transform="translate(0 5)" fill="#ffce41"/>
  <path id="Path_38460" data-name="Path 38460" d="M1,0h9a1,1,0,0,1,0,2H1A1,1,0,0,1,1,0Z" transform="translate(0 10)" fill="#ffce41"/>
</svg>
