<svg xmlns="http://www.w3.org/2000/svg" width="32.996" height="40.527" viewBox="0 0 32.996 40.527">
  <g id="Group_62577" data-name="Group 62577" transform="translate(-171.002 -957.736)" style="mix-blend-mode: multiply;isolation: isolate">
    <circle id="Ellipse_294" data-name="Ellipse 294" cx="16.498" cy="16.498" r="16.498" transform="translate(171.002 957.736)" fill="#8d4600"/>
    <circle id="Ellipse_295" data-name="Ellipse 295" cx="14.052" cy="14.052" r="14.052" transform="translate(173.448 960.183)" fill="#fff"/>
    <g id="Group_62542" data-name="Group 62542" transform="translate(172.167 983.833)">
      <path id="Path_45741" data-name="Path 45741" d="M90.793,344.12H64.461a2.167,2.167,0,0,1-2.167-2.167v-10.1a2.167,2.167,0,0,1,2.167-2.167H90.792a2.167,2.167,0,0,1,2.167,2.167v10.1A2.167,2.167,0,0,1,90.793,344.12Z" transform="translate(-62.294 -329.689)" fill="#d59d1e"/>
      <g id="Group_57685" data-name="Group 57685" transform="translate(3.691 2.441)">
        <path id="Path_45743" data-name="Path 45743" d="M112.45,368.855h0c-.688,0-1.678.008-2.3.007V361.15a.612.612,0,0,0-1.223,0v8.317a.612.612,0,0,0,.508.6,9.065,9.065,0,0,0,1,.016c.44,0,1.083,0,2.025-.007a.612.612,0,0,0,0-1.223Z" transform="translate(-108.924 -360.538)" fill="#fff"/>
        <path id="Path_45744" data-name="Path 45744" d="M187.425,360.537a.611.611,0,0,0-.612.612v8.324a.612.612,0,1,0,1.223,0v-8.324A.611.611,0,0,0,187.425,360.537Z" transform="translate(-180.648 -360.537)" fill="#fff"/>
        <path id="Path_45745" data-name="Path 45745" d="M347.806,369.266h-2.864v-2.9h2.608a.612.612,0,1,0,0-1.223h-2.608v-2.9h2.864a.612.612,0,1,0,0-1.223h-3.475a.612.612,0,0,0-.612.612v8.248a.611.611,0,0,0,.612.612h3.475a.612.612,0,0,0,0-1.223Z" transform="translate(-325.134 -360.979)" fill="#fff"/>
        <path id="Path_45746" data-name="Path 45746" d="M234.6,360.579a.612.612,0,0,0-.773.388l-2.324,7-2.437-7.019a.612.612,0,0,0-1.156.4l2.847,8.2a.8.8,0,0,0,.753.532h.005a.8.8,0,0,0,.753-.546l2.718-8.181A.611.611,0,0,0,234.6,360.579Z" transform="translate(-218.46 -360.532)" fill="#fff"/>
      </g>
    </g>
    <path id="Path_50608" data-name="Path 50608" d="M216.716,146.251v-9.2a1.136,1.136,0,0,1,1.811-.914l6.237,4.6a1.136,1.136,0,0,1,0,1.829l-6.237,4.6a1.136,1.136,0,0,1-1.811-.914Z" transform="translate(-32.325 832.586)" fill="#8d4600"/>
  </g>
</svg>
