<svg xmlns="http://www.w3.org/2000/svg" width="10.882" height="15.5" viewBox="0 0 10.882 15.5">
  <g id="location" transform="translate(-168.868 -248.718)">
    <path id="Path_51286" data-name="Path 51286" d="M174.336,248.718a5.485,5.485,0,0,1,5.371,4.747,7.134,7.134,0,0,1-.721,3.828,26.259,26.259,0,0,1-2.723,4.475c-.511.723-1.015,1.45-1.527,2.172-.249.351-.579.374-.811.037-1.138-1.658-2.3-3.3-3.387-4.992a10.861,10.861,0,0,1-1.569-3.792,5.446,5.446,0,0,1,4.648-6.4C173.856,248.76,174.1,248.741,174.336,248.718Zm-.021,14.224c.349-.489.675-.943,1-1.4a29.868,29.868,0,0,0,2.72-4.339,7.227,7.227,0,0,0,.809-2.789,4.535,4.535,0,1,0-9.06-.4,6.738,6.738,0,0,0,.689,2.908,25.376,25.376,0,0,0,2.566,4.219C173.453,261.735,173.873,262.321,174.316,262.942Z" transform="translate(0)" fill="#646464"/>
    <path id="Path_51287" data-name="Path 51287" d="M216.731,294.016a2.719,2.719,0,1,1-2.714,2.732A2.721,2.721,0,0,1,216.731,294.016Zm-.007,4.533a1.814,1.814,0,1,0-1.8-1.842A1.824,1.824,0,0,0,216.724,298.549Z" transform="translate(-42.42 -42.56)" fill="#646464"/>
  </g>
</svg>
