<svg id="lockers" xmlns="http://www.w3.org/2000/svg" width="20.178" height="20.178" viewBox="0 0 20.178 20.178">
  <g id="Group_62713" data-name="Group 62713">
    <g id="Group_62712" data-name="Group 62712">
      <path id="Path_50745" data-name="Path 50745" d="M64.459,64.917H67.21a.459.459,0,1,0,0-.917H64.459a.459.459,0,1,0,0,.917Z" transform="translate(-61.249 -61.249)" fill="#fff"/>
      <path id="Path_50746" data-name="Path 50746" d="M67.21,106.667H64.459a.459.459,0,1,0,0,.917H67.21a.459.459,0,1,0,0-.917Z" transform="translate(-61.249 -102.081)" fill="#fff"/>
      <path id="Path_50747" data-name="Path 50747" d="M256.459,64.917h2.751a.459.459,0,1,0,0-.917h-2.751a.459.459,0,1,0,0,.917Z" transform="translate(-244.994 -61.249)" fill="#fff"/>
      <path id="Path_50748" data-name="Path 50748" d="M259.668,107.125a.458.458,0,0,0-.459-.459h-2.751a.459.459,0,1,0,0,.917h2.751A.458.458,0,0,0,259.668,107.125Z" transform="translate(-244.993 -102.08)" fill="#fff"/>
      <path id="Path_50749" data-name="Path 50749" d="M149.792,170.667a.458.458,0,0,0-.459.459v1.834a.459.459,0,0,0,.917,0v-1.834A.458.458,0,0,0,149.792,170.667Z" transform="translate(-142.913 -163.33)" fill="#fff"/>
      <path id="Path_50750" data-name="Path 50750" d="M341.333,172.959a.459.459,0,0,0,.917,0v-1.834a.459.459,0,0,0-.917,0Z" transform="translate(-326.658 -163.329)" fill="#fff"/>
      <circle id="Ellipse_304" data-name="Ellipse 304" cx="0.917" cy="0.917" r="0.917" transform="translate(16.509 12.84)" fill="#fff"/>
      <path id="Path_50751" data-name="Path 50751" d="M17.426,11.052V1.834A1.836,1.836,0,0,0,15.592,0h-5.5A1.823,1.823,0,0,0,8.713.634,1.823,1.823,0,0,0,7.337,0h-5.5A1.836,1.836,0,0,0,0,1.834v12.84a1.836,1.836,0,0,0,1.834,1.834h5.5a1.823,1.823,0,0,0,1.376-.634,1.823,1.823,0,0,0,1.376.634H12.65l-1.51,1.51a.458.458,0,0,0-.134.324v1.376a.458.458,0,0,0,.459.459H12.84a.458.458,0,0,0,.324-.134l2.786-2.786a3.156,3.156,0,0,0,1.017.169,3.2,3.2,0,0,0,.459-6.374ZM8.254,14.675a.918.918,0,0,1-.917.917h-5.5a.918.918,0,0,1-.917-.917V1.834A.918.918,0,0,1,1.834.917h5.5a.918.918,0,0,1,.917.917Zm1.834.917a.918.918,0,0,1-.917-.917V1.834a.918.918,0,0,1,.917-.917h5.5a.918.918,0,0,1,.917.917v9.218a3.205,3.205,0,0,0-2.751,3.164,3.134,3.134,0,0,0,.169,1.017l-.359.359Zm6.879.917a2.266,2.266,0,0,1-.94-.206.457.457,0,0,0-.513.094L12.65,19.26h-.727v-.727l2.864-2.864a.459.459,0,0,0,.094-.513,2.29,2.29,0,1,1,2.086,1.353Z" fill="#fff"/>
    </g>
  </g>
</svg>
