<svg xmlns="http://www.w3.org/2000/svg" width="18.999" height="19" viewBox="0 0 18.999 19">
  <g id="Group_62552" data-name="Group 62552" transform="translate(-111.988 -245.077)">
    <path id="Path_50617" data-name="Path 50617" d="M117.411,259.181v-.61q0-5.6,0-11.205c0-.693.2-.891.881-.964,1.891-.2,3.78-.422,5.67-.633q2.466-.276,4.934-.547c.356-.039.713-.07,1.067-.122.72-.105,1.024.148,1.025.872q0,6.827,0,13.654a2.745,2.745,0,0,1-2.017,2.849,3.916,3.916,0,0,1-3.454-.342,2.4,2.4,0,0,1,.023-4.282,3.94,3.94,0,0,1,3.73-.194c.109.046.218.1.357.156v-7.9c-.512.052-1.009.1-1.505.152q-3.258.361-6.516.727c-.871.1-1.743.19-2.612.3a.346.346,0,0,0-.213.252c-.023.407-.011.816-.011,1.224q0,4.156,0,8.311a2.819,2.819,0,0,1-2.413,3.065,3.781,3.781,0,0,1-3.45-.748,2.313,2.313,0,0,1,.035-3.714,3.858,3.858,0,0,1,4.086-.481C117.138,259.049,117.246,259.1,117.411,259.181Z" transform="translate(0 0)" fill="#8d4600"/>
  </g>
</svg>
