<svg xmlns="http://www.w3.org/2000/svg" width="39.12" height="35.862" viewBox="0 0 39.12 35.862">
  <g id="Group_62596" data-name="Group 62596" transform="translate(-45.864 -1071)">
    <path id="Path_50621" data-name="Path 50621" d="M10.187,165.6a6.1,6.1,0,0,1-5.774-4.158l-.057-.187a5.95,5.95,0,0,1-.282-1.767V148.375L.12,161.575a3.7,3.7,0,0,0,2.595,4.491l25.206,6.75a3.739,3.739,0,0,0,.939.121,3.634,3.634,0,0,0,3.523-2.665l1.468-4.67Zm0,0" transform="translate(45.864 933.925)" fill="#8d4600"/>
    <path id="Path_50622" data-name="Path 50622" d="M152.58,71.012a3.26,3.26,0,1,0-3.26-3.26A3.263,3.263,0,0,0,152.58,71.012Zm0,0" transform="translate(-92.047 1011.398)" fill="#8d4600"/>
    <path id="Path_50623" data-name="Path 50623" d="M113.846.492H89.4A4.081,4.081,0,0,0,85.32,4.568V22.5A4.081,4.081,0,0,0,89.4,26.573h24.451a4.081,4.081,0,0,0,4.075-4.075V4.568A4.081,4.081,0,0,0,113.846.492ZM89.4,3.752h24.451a.815.815,0,0,1,.815.815V16.139l-5.149-6.009a2.92,2.92,0,0,0-2.186-1,2.849,2.849,0,0,0-2.178,1.029l-6.054,7.267-1.972-1.968a2.861,2.861,0,0,0-4.042,0l-4.5,4.5V4.568A.815.815,0,0,1,89.4,3.752Zm0,0" transform="translate(-32.937 1070.508)" fill="#d59d1e"/>
  </g>
</svg>
