<svg xmlns="http://www.w3.org/2000/svg" width="18.047" height="18.047" viewBox="0 0 18.047 18.047">
  <g id="Group_62601" data-name="Group 62601" transform="translate(-329.375 -2087.146)">
    <path id="path372" d="M-625.868-312.934a8.4,8.4,0,0,1-8.4,8.4,8.4,8.4,0,0,1-8.4-8.4,8.4,8.4,0,0,1,8.4-8.4A8.4,8.4,0,0,1-625.868-312.934Z" transform="translate(972.665 2409.104)" fill="none" stroke="#848484" stroke-linecap="round" stroke-linejoin="round" stroke-width="1.25"/>
    <path id="path376" d="M-250.349-125.172a3.359,3.359,0,0,1-3.359,3.359,3.359,3.359,0,0,1-3.359-3.359,3.359,3.359,0,0,1,3.359-3.359A3.359,3.359,0,0,1-250.349-125.172Z" transform="translate(592.106 2220.223)" fill="none" stroke="#848484" stroke-linecap="round" stroke-linejoin="round" stroke-width="1.25"/>
    <path id="path380" d="M0-167.709a5.04,5.04,0,0,1,5.011-4.5,5.04,5.04,0,0,1,5.011,4.5" transform="translate(333.388 2270.62)" fill="none" stroke="#848484" stroke-linecap="round" stroke-linejoin="round" stroke-width="1.25"/>
  </g>
</svg>
