<svg xmlns="http://www.w3.org/2000/svg" width="15.983" height="17.318" viewBox="0 0 15.983 17.318">
  <g id="Schedual" transform="translate(0)">
    <g id="Group_62519" data-name="Group 62519">
      <path id="Path_50604" data-name="Path 50604" d="M8.091,10.43a3.5,3.5,0,0,0-3.488,3.5,3.3,3.3,0,0,0,.154,1.019,3.492,3.492,0,0,0,6.678,0,3.3,3.3,0,0,0,.154-1.019,3.509,3.509,0,0,0-3.5-3.5M9.974,15.5a.625.625,0,0,1-.545.3.638.638,0,0,1-.329-.093l-1.235-.761-.1-.062a.622.622,0,0,1-.309-.545V12.694a.643.643,0,1,1,1.286,0V13.98l.072.041.957.6a.7.7,0,0,1,.268.329.632.632,0,0,1-.062.556" transform="translate(-0.098 -0.098)" fill="#8d4600"/>
      <path id="Path_50605" data-name="Path 50605" d="M15.983,4.97v8.89a.366.366,0,0,1-.38.33h-2.98a2.174,2.174,0,0,0,.02-.36,4.645,4.645,0,1,0-9.29,0,2.174,2.174,0,0,0,.02.36h-3a.317.317,0,0,1-.36-.3V4.97Z" fill="#8d4600"/>
      <path id="Path_50606" data-name="Path 50606" d="M15.973.68V3.93H.013L0,.61A.564.564,0,0,1,.393,0H4V1.345a.625.625,0,0,0,1.25,0V0h2.12V1.345a.625.625,0,0,0,1.25,0V0h2.11V1.345a.625.625,0,0,0,1.25,0V0h3.56a.585.585,0,0,1,.43.68" fill="#8d4600"/>
      <path id="Path_50607" data-name="Path 50607" d="M8.693,13.92l-.07-.04v-.09Z" fill="#8d4600"/>
    </g>
  </g>
</svg>
