<svg xmlns="http://www.w3.org/2000/svg" width="21.761" height="21.702" viewBox="0 0 21.761 21.702">
  <g id="shower" transform="translate(0.25 0.177)">
    <path id="Path_50752" data-name="Path 50752" d="M256.956,357.8a.624.624,0,1,0-1.244.086l.042.6A.624.624,0,1,0,257,358.4Z" transform="translate(-245.08 -342.302)" fill="#fff" stroke="#8d4600" stroke-width="0.5"/>
    <path id="Path_50753" data-name="Path 50753" d="M329.233,325.68a.624.624,0,0,0-1.141.5l.229.518a.624.624,0,1,0,1.141-.5Z" transform="translate(-314.401 -311.714)" fill="#fff" stroke="#8d4600" stroke-width="0.5"/>
    <path id="Path_50754" data-name="Path 50754" d="M401.448,293.592a.624.624,0,0,0-.9.861l.416.436a.624.624,0,0,0,.9-.861Z" transform="translate(-383.729 -281.132)" fill="#fff" stroke="#8d4600" stroke-width="0.5"/>
    <path id="Path_50755" data-name="Path 50755" d="M254.084,448.674a.624.624,0,0,0-.592.653l.03.622a.624.624,0,0,0,1.246-.061l-.03-.622a.624.624,0,0,0-.653-.592Z" transform="translate(-242.952 -429.951)" fill="#fff" stroke="#8d4600" stroke-width="0.5"/>
    <path id="Path_50756" data-name="Path 50756" d="M326.743,417.333a.624.624,0,1,0-1.2.354l.167.562a.624.624,0,1,0,1.2-.354Z" transform="translate(-311.988 -399.486)" fill="#fff" stroke="#8d4600" stroke-width="0.5"/>
    <path id="Path_50757" data-name="Path 50757" d="M398.714,385.409a.624.624,0,0,0-1.068.644l.3.5a.624.624,0,0,0,1.068-.644Z" transform="translate(-381.029 -369.027)" fill="#fff" stroke="#8d4600" stroke-width="0.5"/>
    <path id="Path_50758" data-name="Path 50758" d="M471.1,353.955l-.439-.442a.624.624,0,1,0-.885.879l.439.442a.624.624,0,1,0,.885-.879Z" transform="translate(-450.071 -338.57)" fill="#fff" stroke="#8d4600" stroke-width="0.5"/>
    <path id="Path_50759" data-name="Path 50759" d="M17.893,8.357,17.7,7.933a1.666,1.666,0,0,0-1.777-.967L15.811,6.7A3.614,3.614,0,0,0,11.937,4.6l-.41-.931A6.019,6.019,0,0,0,0,6.092v14.56a.624.624,0,0,0,.624.624H3.118a.624.624,0,0,0,.624-.624V6.092A2.277,2.277,0,0,1,8.1,5.174l.44,1a3.616,3.616,0,0,0-.87,4.154l.117.262a1.662,1.662,0,0,0-.469,1.966l.189.424a1.843,1.843,0,0,0,2.434.934l7.017-3.123a1.846,1.846,0,0,0,.934-2.434ZM14.671,7.212l.093.209L8.9,10.03,8.812,9.82a2.371,2.371,0,0,1,1.205-3.138l1.515-.675a2.37,2.37,0,0,1,3.139,1.2ZM6.019,2.567A3.528,3.528,0,0,0,2.494,6.092V20.028H1.247V6.092a4.772,4.772,0,0,1,9.139-1.922l.362.822L9.608,5.5l-.364-.827a3.525,3.525,0,0,0-3.226-2.1ZM16.451,9.651,9.435,12.775a.6.6,0,0,1-.787-.3l-.189-.424A.416.416,0,0,1,8.67,11.5l7.346-3.27a.416.416,0,0,1,.549.211l.189.424a.6.6,0,0,1-.3.787Z" fill="#fff" stroke="#8d4600" stroke-width="0.5"/>
  </g>
</svg>
