<svg xmlns="http://www.w3.org/2000/svg" width="17.199" height="21.683" viewBox="0 0 17.199 21.683">
  <g id="Group_62528" data-name="Group 62528" transform="translate(-2612.25 -208.917)">
    <path id="path1617" d="M-410.967-400.693a1.968,1.968,0,0,1-1.962,1.962H-424.7a1.968,1.968,0,0,1-1.962-1.962,1.968,1.968,0,0,1,1.052-1.737,1.842,1.842,0,0,0,.911-1.65v-4.032A5.887,5.887,0,0,1-418.816-414a5.887,5.887,0,0,1,5.887,5.887v4.032a1.842,1.842,0,0,0,.911,1.65A1.968,1.968,0,0,1-410.967-400.693Z" transform="translate(3039.665 625.628)" fill="none" stroke="#ffce41" stroke-linecap="round" stroke-linejoin="round" stroke-width="1.5"/>
    <path id="path1621" d="M0,0H3.925" transform="translate(2618.887 229.849)" fill="none" stroke="#ffce41" stroke-linecap="round" stroke-linejoin="round" stroke-width="1.5"/>
    <path id="path1625" d="M0,0V1.962" transform="translate(2620.849 209.667)" fill="none" stroke="#ffce41" stroke-linecap="round" stroke-linejoin="round" stroke-width="1.5"/>
  </g>
</svg>
