<svg xmlns="http://www.w3.org/2000/svg" width="37.307" height="33.13" viewBox="0 0 37.307 33.13">
  <g id="video-lesson" transform="translate(-3 -6.7)">
    <g id="Group_62590" data-name="Group 62590" transform="translate(3 6.7)">
      <g id="Group_62589" data-name="Group 62589">
        <g id="Group_62586" data-name="Group 62586">
          <path id="Path_50632" data-name="Path 50632" d="M37.936,6.7H5.314A2.277,2.277,0,0,0,3,8.958V30.123a2.324,2.324,0,0,0,2.314,2.314H37.993a2.324,2.324,0,0,0,2.314-2.314V8.958A2.364,2.364,0,0,0,37.936,6.7ZM21.625,28.881a9.369,9.369,0,1,1,9.369-9.369A9.382,9.382,0,0,1,21.625,28.881Z" transform="translate(-3 -6.7)" fill="#8d4600"/>
        </g>
        <g id="Group_62588" data-name="Group 62588" transform="translate(14.9 8.424)">
          <g id="Group_62587" data-name="Group 62587" transform="translate(0 0)">
            <path id="Path_50633" data-name="Path 50633" d="M37.358,26.07a1.678,1.678,0,0,1-.79,1.411L31.883,30.3a1.593,1.593,0,0,1-.847.226,1.3,1.3,0,0,1-.79-.226,1.663,1.663,0,0,1-.847-1.411V23.248a1.552,1.552,0,0,1,.847-1.411,1.688,1.688,0,0,1,1.637,0l4.685,2.822A1.546,1.546,0,0,1,37.358,26.07Z" transform="translate(-29.4 -21.625)" fill="#d59d1e"/>
          </g>
        </g>
      </g>
    </g>
    <g id="Group_62591" data-name="Group 62591" transform="translate(3.508 35.428)">
      <path id="Path_50634" data-name="Path 50634" d="M40.642,59.8a.566.566,0,0,1-.564.564H13.043A2.689,2.689,0,0,1,10.391,62a2.743,2.743,0,0,1-2.653-1.637H4.464A.566.566,0,0,1,3.9,59.8a.533.533,0,0,1,.564-.564H7.738A2.637,2.637,0,0,1,10.391,57.6a2.689,2.689,0,0,1,2.653,1.637H40.078A.533.533,0,0,1,40.642,59.8Z" transform="translate(-3.9 -57.6)" fill="#d59d1e"/>
    </g>
  </g>
</svg>
