<svg xmlns="http://www.w3.org/2000/svg" width="37.885" height="37.886" viewBox="0 0 37.885 37.886">
  <g id="accountable" transform="translate(-0.004)">
    <path id="Path_50628" data-name="Path 50628" d="M4.188,135.853A9.987,9.987,0,0,1,2.7,130.6v-7.58a1.346,1.346,0,1,0-2.691,0V135.51a7.774,7.774,0,0,0,4.3,6.953l.614.307v7.786H7.606V139.2A9.985,9.985,0,0,1,4.188,135.853Z" transform="translate(0 -112.67)" fill="#d59d1e"/>
    <path id="Path_50629" data-name="Path 50629" d="M334.534,90.821V84.306a1.346,1.346,0,0,0-2.691,0v7.172l.118-.081A3.578,3.578,0,0,1,334.534,90.821Z" transform="translate(-307.284 -76.821)" fill="#d59d1e"/>
    <path id="Path_50630" data-name="Path 50630" d="M322.346,130.1l-3.588,2.477V117.489a1.346,1.346,0,1,0-2.691,0v5.325c.069.084.135.171.2.262a3.6,3.6,0,0,1-.952,4.99l-1.322.9a8.327,8.327,0,0,0-2.268,2.291,7.779,7.779,0,0,1-2.2,2.2l-.019,11.977h7.6l.02-7.14.589-.312a5.469,5.469,0,0,0,1.979-1.816,10.536,10.536,0,0,1,2.87-2.9l1.322-.9a1.372,1.372,0,0,0-1.54-2.272Z" transform="translate(-286.597 -107.549)" fill="#d59d1e"/>
    <path id="Path_50631" data-name="Path 50631" d="M87.6,19.579l1.322-.9a1.372,1.372,0,0,0-1.539-2.272L83.8,18.886V3.8a1.346,1.346,0,1,0-2.691,0v7.162h-2.22V1.346a1.346,1.346,0,1,0-2.691,0v8.39h-2.22V1.346a1.346,1.346,0,1,0-2.691,0v9.617h-2.22V5.438a1.346,1.346,0,1,0-2.691,0V17.929a7.774,7.774,0,0,0,4.3,6.953l.614.307v12.7h10.86l.02-13.279.59-.312a5.468,5.468,0,0,0,1.979-1.816,10.534,10.534,0,0,1,2.869-2.9Z" transform="translate(-61.458)" fill="#8d4600"/>
  </g>
</svg>
