<svg xmlns="http://www.w3.org/2000/svg" width="15.036" height="15.036" viewBox="0 0 15.036 15.036">
  <g id="call" transform="translate(0 0)">
    <g id="Group_62713" data-name="Group 62713" transform="translate(0 0)">
      <g id="Group_62712" data-name="Group 62712" transform="translate(0 0)">
        <path id="Path_51266" data-name="Path 51266" d="M14.744,11.956l-1.667-1.111L11.6,9.857a.656.656,0,0,0-.881.143L9.8,11.179a.653.653,0,0,1-.834.173,10.676,10.676,0,0,1-2.981-2.3,10.752,10.752,0,0,1-2.3-2.981.653.653,0,0,1,.173-.834l1.179-.917a.656.656,0,0,0,.143-.881L4.222,2,3.08.292A.656.656,0,0,0,2.2.094L.88.883a1.609,1.609,0,0,0-.731.945c-.36,1.313-.433,4.209,4.209,8.85s7.537,4.568,8.85,4.208a1.608,1.608,0,0,0,.945-.731l.79-1.317A.656.656,0,0,0,14.744,11.956Z" transform="translate(0 0)" fill="#848484"/>
      </g>
    </g>
  </g>
</svg>
