<svg xmlns="http://www.w3.org/2000/svg" width="17.182" height="17.182" viewBox="0 0 17.182 17.182">
  <path id="Upcoming_events" data-name="Upcoming events" d="M19.844,9.113H3.284A.28.28,0,0,0,3,9.388v7.275a2.37,2.37,0,0,0,.714,2.059,2.587,2.587,0,0,0,2.141.686H17.275a2.587,2.587,0,0,0,2.141-.686,2.37,2.37,0,0,0,.714-2.059V9.388A.28.28,0,0,0,19.844,9.113Zm-5.061,4.423-1.2,1.1a.337.337,0,0,0-.107.31l.274,1.505a.372.372,0,0,1-.159.366.407.407,0,0,1-.412.028l-1.439-.712a.394.394,0,0,0-.345,0l-1.438.712a.409.409,0,0,1-.419-.022.374.374,0,0,1-.164-.371l.274-1.5a.337.337,0,0,0-.107-.31l-1.2-1.1a.339.339,0,0,1-.094-.361.359.359,0,0,1,.3-.236l1.659-.227a.372.372,0,0,0,.28-.19l.719-1.373a.408.408,0,0,1,.712,0l.719,1.373a.372.372,0,0,0,.28.19l1.659.227a.359.359,0,0,1,.3.234A.338.338,0,0,1,14.783,13.536ZM20.13,7.054v.412a.28.28,0,0,1-.286.275H3.284A.28.28,0,0,1,3,7.466V7.054A2.37,2.37,0,0,1,3.713,5a2.587,2.587,0,0,1,2.141-.686h1.19V2.936a.714.714,0,0,1,1.428,0V4.309h6.186V2.936a.714.714,0,0,1,1.428,0V4.309h1.19A2.587,2.587,0,0,1,19.416,5a2.37,2.37,0,0,1,.714,2.059Z" transform="translate(-2.973 -2.25)" fill="#848484"/>
</svg>
