<svg xmlns="http://www.w3.org/2000/svg" width="28" height="28" viewBox="0 0 28 28">
  <g id="insta" transform="translate(-182 -769)">
    <circle id="Ellipse_307" data-name="Ellipse 307" cx="14" cy="14" r="14" transform="translate(182 769)" fill="#f1f1f1"/>
    <path id="Icon_awesome-instagram" data-name="Icon awesome-instagram" d="M6.2,5.26A3.181,3.181,0,1,0,9.382,8.441,3.176,3.176,0,0,0,6.2,5.26Zm0,5.249A2.068,2.068,0,1,1,8.269,8.441,2.072,2.072,0,0,1,6.2,10.51ZM10.254,5.13a.742.742,0,1,1-.742-.742A.74.74,0,0,1,10.254,5.13Zm2.107.753a3.672,3.672,0,0,0-1-2.6,3.7,3.7,0,0,0-2.6-1c-1.024-.058-4.095-.058-5.119,0a3.691,3.691,0,0,0-2.6,1,3.684,3.684,0,0,0-1,2.6C-.02,6.9-.02,9.975.038,11a3.672,3.672,0,0,0,1,2.6,3.7,3.7,0,0,0,2.6,1c1.024.058,4.095.058,5.119,0a3.672,3.672,0,0,0,2.6-1,3.7,3.7,0,0,0,1-2.6c.058-1.024.058-4.092,0-5.116ZM11.038,12.1a2.094,2.094,0,0,1-1.179,1.179,13.674,13.674,0,0,1-3.657.249,13.781,13.781,0,0,1-3.657-.249A2.094,2.094,0,0,1,1.364,12.1a13.674,13.674,0,0,1-.249-3.657,13.781,13.781,0,0,1,.249-3.657A2.094,2.094,0,0,1,2.544,3.6,13.674,13.674,0,0,1,6.2,3.356,13.781,13.781,0,0,1,9.859,3.6a2.094,2.094,0,0,1,1.179,1.179,13.674,13.674,0,0,1,.249,3.657A13.666,13.666,0,0,1,11.038,12.1Z" transform="translate(189.286 775.216)" fill="#848484"/>
  </g>
</svg>
