<svg xmlns="http://www.w3.org/2000/svg" width="13.41" height="17.605" viewBox="0 0 13.41 17.605">
  <g id="Policy" transform="translate(0 0)">
    <path id="Path_51270" data-name="Path 51270" d="M62.547,17.6H72.863a1.549,1.549,0,0,0,1.547-1.547V5.158H70.8A1.549,1.549,0,0,1,69.252,3.61V0h-6.7A1.549,1.549,0,0,0,61,1.547v14.51A1.549,1.549,0,0,0,62.547,17.6ZM64.61,7.255H70.8a.516.516,0,0,1,0,1.032H64.61a.516.516,0,1,1,0-1.032Zm0,2.063H70.8a.516.516,0,0,1,0,1.032H64.61a.516.516,0,1,1,0-1.032Zm0,2.063H70.8a.516.516,0,0,1,0,1.032H64.61a.516.516,0,1,1,0-1.032Zm0,2.063h4.126a.516.516,0,1,1,0,1.032H64.61a.516.516,0,1,1,0-1.032Z" transform="translate(-61 0)" fill="#848484"/>
    <path id="Path_51271" data-name="Path 51271" d="M331.516,12.613h3.308L331,8.789V12.1A.516.516,0,0,0,331.516,12.613Z" transform="translate(-321.716 -8.487)" fill="#848484"/>
  </g>
</svg>
