<svg xmlns="http://www.w3.org/2000/svg" width="17.595" height="17.595" viewBox="0 0 17.595 17.595">
  <g id="profile_2" data-name="profile 2" transform="translate(0 0)">
    <path id="Path_51258" data-name="Path 51258" d="M13.519,12.038a3.519,3.519,0,1,1,3.519-3.519A3.519,3.519,0,0,1,13.519,12.038Zm0-5.865a2.346,2.346,0,1,0,2.346,2.346A2.346,2.346,0,0,0,13.519,6.173Z" transform="translate(-4.715 -2.654)" fill="#848484"/>
    <path id="Path_51259" data-name="Path 51259" d="M10.992,25.939a8.8,8.8,0,0,1-6.8-3.22l-.3-.375.3-.369a8.8,8.8,0,0,1,13.595,0l.3.369-.3.375A8.8,8.8,0,0,1,10.992,25.939ZM5.427,22.35a7.624,7.624,0,0,0,11.143,0,7.624,7.624,0,0,0-11.143,0Z" transform="translate(-2.188 -8.344)" fill="#848484"/>
    <path id="Path_51260" data-name="Path 51260" d="M9.793,18.594a8.8,8.8,0,1,1,6.8-3.22,8.8,8.8,0,0,1-6.8,3.22Zm0-16.422A7.624,7.624,0,1,0,17.417,9.8,7.624,7.624,0,0,0,9.793,2.173Z" transform="translate(-0.988 -0.999)" fill="#848484"/>
    <path id="Path_51261" data-name="Path 51261" d="M5.18,22.708s5.906,6.6,11.917.657l.774-.657S12.851,17.5,7.755,20.626Z" transform="translate(-2.722 -8.702)" fill="#848484"/>
    <circle id="Ellipse_303" data-name="Ellipse 303" cx="2.932" cy="2.932" r="2.932" transform="translate(5.872 2.933)" fill="#848484"/>
  </g>
</svg>
