<svg xmlns="http://www.w3.org/2000/svg" width="18.629" height="17.639" viewBox="0 0 18.629 17.639">
  <g id="Settings" transform="translate(0 0)">
    <path id="Path_51272" data-name="Path 51272" d="M18.517,8.036A2.434,2.434,0,0,1,16.6,4.745a1.143,1.143,0,0,0-.342-1.285,9.159,9.159,0,0,0-2.732-1.583,1.149,1.149,0,0,0-1.3.36,2.428,2.428,0,0,1-3.825,0,1.149,1.149,0,0,0-1.3-.36A9.2,9.2,0,0,0,4.558,3.3,1.155,1.155,0,0,0,4.2,4.627,2.422,2.422,0,0,1,2.18,7.955a1.149,1.149,0,0,0-1.006.925A8.78,8.78,0,0,0,1,10.619a8.892,8.892,0,0,0,.118,1.459,1.149,1.149,0,0,0,1.012.962A2.422,2.422,0,0,1,4.1,16.463a1.13,1.13,0,0,0,.317,1.354,9.228,9.228,0,0,0,2.707,1.559,1.242,1.242,0,0,0,.391.068,1.143,1.143,0,0,0,.931-.484,2.4,2.4,0,0,1,1.987-1.043,2.434,2.434,0,0,1,1.95.981,1.143,1.143,0,0,0,1.341.379,9.315,9.315,0,0,0,2.484-1.484,1.149,1.149,0,0,0,.335-1.31,2.422,2.422,0,0,1,1.944-3.347,1.149,1.149,0,0,0,.975-.944,9,9,0,0,0,.161-1.571,8.916,8.916,0,0,0-.156-1.66A1.136,1.136,0,0,0,18.517,8.036Zm-5.1,2.583a3.1,3.1,0,1,1-3.1-3.1,3.1,3.1,0,0,1,3.1,3.1Z" transform="translate(-1 -1.804)" fill="#848484"/>
  </g>
</svg>
