<svg xmlns="http://www.w3.org/2000/svg" xmlns:xlink="http://www.w3.org/1999/xlink" width="17.162" height="15.913" viewBox="0 0 17.162 15.913">
  <defs>
    <clipPath id="clip-path">
      <rect id="Rectangle_21291" data-name="Rectangle 21291" width="17.162" height="15.913" fill="#848484"/>
    </clipPath>
  </defs>
  <g id="Request_To_Stay" data-name="Request To Stay" transform="translate(0 0)">
    <g id="Group_62720" data-name="Group 62720" transform="translate(0 0)" clip-path="url(#clip-path)">
      <path id="Path_51281" data-name="Path 51281" d="M2.933,9.205a.286.286,0,0,0-.286-.286h-1.5A1.145,1.145,0,0,0,0,10.063V17.3a1.145,1.145,0,0,0,1.144,1.144H2.938S2.933,14.6,2.933,9.2m-.967,6.6a.286.286,0,1,1-.572,0V11.783a.286.286,0,1,1,.572,0Z" transform="translate(0 -2.539)" fill="#848484"/>
      <path id="Path_51282" data-name="Path 51282" d="M21.678,8.918h-1.5a.286.286,0,0,0-.286.286c0,5.4-.006,9.245-.006,9.245s.113,0,.278,0h1.518A1.145,1.145,0,0,0,22.824,17.3V10.064a1.145,1.145,0,0,0-1.144-1.144m-.25,6.884a.286.286,0,0,1-.572,0v-4.02a.286.286,0,0,1,.572,0V15.8Z" transform="translate(-5.662 -2.539)" fill="#848484"/>
      <path id="Path_51283" data-name="Path 51283" d="M12.6,17.976v2.972h-2V17.976a.286.286,0,0,1,.286-.286h1.431a.286.286,0,0,1,.286.286" transform="translate(-3.017 -5.037)" fill="#848484"/>
      <path id="Path_51284" data-name="Path 51284" d="M13.457,0H6.493A1.494,1.494,0,0,0,4.9,1.377v14.19a.372.372,0,0,0,.4.343H7.787V11.663a.372.372,0,0,1,.4-.343h3.581a.372.372,0,0,1,.4.343v4.246l.4,0h2.089a.373.373,0,0,0,.4-.343V1.377A1.494,1.494,0,0,0,13.458,0M11.567,5.831H8.384a.347.347,0,0,1-.1-.687.385.385,0,0,1,.1,0h3.183a.347.347,0,0,1,.1.687.331.331,0,0,1-.1,0m.7-1.664H7.686a.347.347,0,0,1-.1-.687.331.331,0,0,1,.1,0h4.578a.347.347,0,0,1,.1.687.331.331,0,0,1-.1,0" transform="translate(-1.396 0)" fill="#848484"/>
    </g>
  </g>
</svg>
