<svg xmlns="http://www.w3.org/2000/svg" width="28" height="28" viewBox="0 0 28 28">
  <g id="Twitter" transform="translate(-83 -769)">
    <circle id="Ellipse_304" data-name="Ellipse 304" cx="14" cy="14" r="14" transform="translate(83 769)" fill="#f1f1f1"/>
    <path id="Path_1483" data-name="Path 1483" d="M593.65-1298.042a6.552,6.552,0,0,1-1.574,1.618q.01.136.01.407a8.875,8.875,0,0,1-.369,2.515,9.084,9.084,0,0,1-1.122,2.409,9.48,9.48,0,0,1-1.792,2.041,7.976,7.976,0,0,1-2.506,1.415,9.166,9.166,0,0,1-3.137.528,8.73,8.73,0,0,1-4.818-1.405,6.754,6.754,0,0,0,.758.039,6.151,6.151,0,0,0,3.9-1.338,3.066,3.066,0,0,1-1.826-.625,3.065,3.065,0,0,1-1.107-1.547,3.9,3.9,0,0,0,.592.049,3.276,3.276,0,0,0,.826-.106,3.092,3.092,0,0,1-1.8-1.081,3.023,3.023,0,0,1-.714-1.992v-.039a3.106,3.106,0,0,0,1.418.4,3.132,3.132,0,0,1-1.02-1.114,3.049,3.049,0,0,1-.379-1.493,3.064,3.064,0,0,1,.427-1.58,8.881,8.881,0,0,0,2.861,2.312,8.751,8.751,0,0,0,3.609.965,3.465,3.465,0,0,1-.078-.718,3.015,3.015,0,0,1,.918-2.216,3.029,3.029,0,0,1,2.22-.916,3.026,3.026,0,0,1,2.292.989,6.185,6.185,0,0,0,1.991-.756,3.043,3.043,0,0,1-1.379,1.726A6.3,6.3,0,0,0,593.65-1298.042Z" transform="translate(-489.333 2076.371)" fill="#848484"/>
  </g>
</svg>
