<svg xmlns="http://www.w3.org/2000/svg" width="19.326" height="16.488" viewBox="0 0 19.326 16.488">
  <path id="Become_a_volunteer" data-name="Become a volunteer" d="M17.717,9.783l-3.564,3.7v0l-2.685,2.785-.217.225V13.722a.139.139,0,0,1,.032-.09l.673-.786a3.648,3.648,0,0,0,.809-1.774l.327-1.945A.7.7,0,0,0,13,8.663a.526.526,0,0,0-.341-.256.538.538,0,0,0-.6.462l-.222,1.058a.179.179,0,0,1-.171.155.161.161,0,0,1-.121-.062.22.22,0,0,1-.048-.144V5.823a.562.562,0,0,0-.513-.6h0a.474.474,0,0,0-.362.175.646.646,0,0,0-.15.4v3.63a.11.11,0,1,1-.217,0v-3.6c0-.011,0-.021,0-.031V4.712a.519.519,0,1,0-1.025,0V9.426a.11.11,0,1,1-.217,0V5.82a.562.562,0,0,0-.513-.6h0a.562.562,0,0,0-.512.6V7.408c0,.016,0,.033,0,.05V9.424a.119.119,0,0,1-.109.127A.1.1,0,0,1,7.8,9.514a.137.137,0,0,1-.032-.09V7.415a.555.555,0,0,0-.511-.558.562.562,0,0,0-.512.6v3.215a3.741,3.741,0,0,0,.865,2.439l.435.508a.14.14,0,0,1,.032.09v2.776l-.109-.113-.109-.113-.3-.315L1.61,9.781a5.9,5.9,0,0,1,0-8.1c2.356-2.445,5.775-2.11,8.053.253,2.277-2.362,5.7-2.7,8.052-.253a5.9,5.9,0,0,1,0,8.1" transform="translate(0 0)" fill="#848484"/>
</svg>
