<svg xmlns="http://www.w3.org/2000/svg" width="28" height="28" viewBox="0 0 28 28">
  <g id="youtube" transform="translate(-149 -769)">
    <circle id="Ellipse_306" data-name="Ellipse 306" cx="14" cy="14" r="14" transform="translate(149 769)" fill="#f1f1f1"/>
    <path id="Path_1485" data-name="Path 1485" d="M766.6-1357.38c0-.005,0-.011,0-.017a1.94,1.94,0,0,0-1.4-1.345,46.619,46.619,0,0,0-5.387-.25,42.51,42.51,0,0,0-5.4.276,1.941,1.941,0,0,0-1.4,1.359,15.966,15.966,0,0,0-.289,3.1,15.938,15.938,0,0,0,.3,3.152,1.951,1.951,0,0,0,1.4,1.289,42.57,42.57,0,0,0,5.393.274,42.5,42.5,0,0,0,5.4-.275,1.939,1.939,0,0,0,1.4-1.359,15.954,15.954,0,0,0,.289-3.077A15.958,15.958,0,0,0,766.6-1357.38Zm-4.492,3.351-3.558,1.889a.3.3,0,0,1-.138.033.293.293,0,0,1-.14-.035.257.257,0,0,1-.138-.225v-3.778a.257.257,0,0,1,.138-.225.3.3,0,0,1,.278,0l3.558,1.889a.257.257,0,0,1,.141.226A.257.257,0,0,1,762.107-1354.028Z" transform="translate(-596.499 2137.848)" fill="#848484"/>
  </g>
</svg>
